<?xml version="1.0" encoding="UTF-8"?>
<svg xmlns="http://www.w3.org/2000/svg" viewBox="0 0 900 580" role="img" aria-labelledby="mapTitle mapDesc">
  <title id="mapTitle">Mapa festivalového areálu  miesta úloh</title>
  <desc id="mapDesc">Stylizovaná stredoveká mapa s oznaenými zónami a íslami úloh.</desc>
  <defs>
    <linearGradient id="parchment" x1="0%" y1="0%" x2="100%" y2="100%">
      <stop offset="0%" style="stop-color:#f2e6d0"/>
      <stop offset="50%" style="stop-color:#e8d9be"/>
      <stop offset="100%" style="stop-color:#dcc9a8"/>
    </linearGradient>
    <linearGradient id="forest" x1="0%" y1="0%" x2="0%" y2="100%">
      <stop offset="0%" style="stop-color:#4a6b4a"/>
      <stop offset="100%" style="stop-color:#2d4530"/>
    </linearGradient>
    <filter id="shadow" x="-10%" y="-10%" width="120%" height="120%">
      <feDropShadow dx="2" dy="3" stdDeviation="2" flood-opacity="0.25"/>
    </filter>
  </defs>

  <!-- Orámovanie -->
  <rect x="8" y="8" width="884" height="564" rx="4" fill="url(#parchment)" stroke="#5c1a1a" stroke-width="6"/>
  <rect x="20" y="20" width="860" height="540" rx="2" fill="none" stroke="#c9a227" stroke-width="2"/>

  <!-- Les / pozadie -->
  <ellipse cx="140" cy="120" rx="100" ry="85" fill="url(#forest)" opacity="0.35"/>
  <ellipse cx="780" cy="140" rx="90" ry="70" fill="url(#forest)" opacity="0.3"/>
  <ellipse cx="820" cy="420" rx="70" ry="95" fill="url(#forest)" opacity="0.28"/>

  <!-- Cesty -->
  <path d="M 120 480 Q 200 400 280 360 T 420 280 T 520 200 T 480 120" fill="none" stroke="#8b6914" stroke-width="14" stroke-linecap="round" opacity="0.5"/>
  <path d="M 480 120 L 520 200 L 680 260 L 720 340 L 620 420 L 480 480" fill="none" stroke="#a67c2a" stroke-width="10" stroke-linecap="round" stroke-dasharray="18 12" opacity="0.55"/>
  <path d="M 280 360 L 200 300 L 140 220" fill="none" stroke="#8b6914" stroke-width="8" stroke-linecap="round" opacity="0.45"/>

  <!-- Námestie / trávnik -->
  <ellipse cx="480" cy="320" rx="200" ry="140" fill="#c4b896" opacity="0.4" stroke="#7a6b4a" stroke-width="1"/>

  <!-- Zóny (atítky) -->
  <g font-family="Georgia, serif" font-size="13" fill="#3d2914" font-weight="bold">
    <rect x="60" y="240" width="100" height="28" rx="3" fill="#f4e8d4" stroke="#5c1a1a" stroke-width="1.5"/>
    <text x="110" y="259" text-anchor="middle">REMESLÁ</text>
    <rect x="400" y="72" width="100" height="28" rx="3" fill="#f4e8d4" stroke="#5c1a1a" stroke-width="1.5"/>
    <text x="450" y="91" text-anchor="middle">SCÉNA</text>
    <rect x="700" y="220" width="110" height="28" rx="3" fill="#f4e8d4" stroke="#5c1a1a" stroke-width="1.5"/>
    <text x="755" y="239" text-anchor="middle">LUKOSTRE=BA</text>
    <rect x="180" y="400" width="90" height="28" rx="3" fill="#f4e8d4" stroke="#5c1a1a" stroke-width="1.5"/>
    <text x="225" y="419" text-anchor="middle">DETI</text>
    <rect x="600" y="440" width="100" height="28" rx="3" fill="#f4e8d4" stroke="#5c1a1a" stroke-width="1.5"/>
    <text x="650" y="459" text-anchor="middle">TÁBORÁK</text>
    <rect x="400" y="500" width="120" height="30" rx="3" fill="#f4e8d4" stroke="#c9a227" stroke-width="2"/>
    <text x="460" y="520" text-anchor="middle">POKLADNICA</text>
    <rect x="72" y="460" width="76" height="26" rx="3" fill="#f4e8d4" stroke="#5c1a1a" stroke-width="1.5"/>
    <text x="110" y="478" text-anchor="middle">BRÁNA</text>
  </g>

  <!-- Jednoduché ikony zón -->
  <g stroke="#5c1a1a" stroke-width="2" fill="none" opacity="0.6">
    <path d="M 420 95 L 450 60 L 480 95 L 450 110 Z"/>
    <circle cx="755" cy="280" r="22"/>
    <circle cx="755" cy="280" r="8"/>
    <line x1="755" y1="258" x2="755" y2="246"/>
  </g>

  <!-- Úlohy: ísla na mape -->
  <g id="ulohy" filter="url(#shadow)">
    <g id="uloha-1">
      <title>Úloha 1  pri bráne</title>
      <circle cx="110" cy="430" r="22" fill="#5c1a1a" stroke="#c9a227" stroke-width="3"/>
      <text x="110" y="437" text-anchor="middle" fill="#f4e8d4" font-family="Georgia, serif" font-size="18" font-weight="bold">1</text>
    </g>
    <g id="uloha-2">
      <title>Úloha 2  remeslá</title>
      <circle cx="130" cy="300" r="22" fill="#5c1a1a" stroke="#c9a227" stroke-width="3"/>
      <text x="130" y="307" text-anchor="middle" fill="#f4e8d4" font-family="Georgia, serif" font-size="18" font-weight="bold">2</text>
    </g>
    <g id="uloha-3">
      <title>Úloha 3  pri scéne</title>
      <circle cx="450" cy="155" r="22" fill="#5c1a1a" stroke="#c9a227" stroke-width="3"/>
      <text x="450" y="162" text-anchor="middle" fill="#f4e8d4" font-family="Georgia, serif" font-size="18" font-weight="bold">3</text>
    </g>
    <g id="uloha-4">
      <title>Úloha 4  lukostrelba</title>
      <circle cx="700" cy="300" r="22" fill="#5c1a1a" stroke="#c9a227" stroke-width="3"/>
      <text x="700" y="307" text-anchor="middle" fill="#f4e8d4" font-family="Georgia, serif" font-size="18" font-weight="bold">4</text>
    </g>
    <g id="uloha-5">
      <title>Úloha 5  detská zóna</title>
      <circle cx="250" cy="390" r="22" fill="#5c1a1a" stroke="#c9a227" stroke-width="3"/>
      <text x="250" y="397" text-anchor="middle" fill="#f4e8d4" font-family="Georgia, serif" font-size="18" font-weight="bold">5</text>
    </g>
    <g id="uloha-6">
      <title>Úloha 6  táborák</title>
      <circle cx="640" cy="400" r="22" fill="#5c1a1a" stroke="#c9a227" stroke-width="3"/>
      <text x="640" y="407" text-anchor="middle" fill="#f4e8d4" font-family="Georgia, serif" font-size="18" font-weight="bold">6</text>
    </g>
    <g id="uloha-7">
      <title>Úloha 7  námestie</title>
      <circle cx="420" cy="310" r="22" fill="#5c1a1a" stroke="#c9a227" stroke-width="3"/>
      <text x="420" y="317" text-anchor="middle" fill="#f4e8d4" font-family="Georgia, serif" font-size="18" font-weight="bold">7</text>
    </g>
    <g id="uloha-8">
      <title>Úloha 8  pri pokladnici</title>
      <circle cx="520" cy="470" r="22" fill="#5c1a1a" stroke="#c9a227" stroke-width="3"/>
      <text x="520" y="477" text-anchor="middle" fill="#f4e8d4" font-family="Georgia, serif" font-size="18" font-weight="bold">8</text>
    </g>
  </g>

  <!-- Titulok mapy -->
  <text x="450" y="42" text-anchor="middle" fill="#5c1a1a" font-family="Georgia, serif" font-size="20" font-weight="bold" letter-spacing="0.15em">PÚd PO AREÁLI</text>
  <text x="450" y="62" text-anchor="middle" fill="#6b4420" font-family="Georgia, serif" font-size="11" font-style="italic">Stredoveký festival  Pod vlekom</text>

  <!-- Malá ru~ica -->
  <g transform="translate(820, 68)" opacity="0.7">
    <circle r="28" fill="#f4e8d4" stroke="#5c1a1a" stroke-width="1.5"/>
    <polygon points="0,-22 5,0 0,22 -5,0" fill="#c9a227"/>
    <text y="4" text-anchor="middle" fill="#3d2914" font-family="Georgia, serif" font-size="10" font-weight="bold">S</text>
  </g>
</svg>
